{"title":"Sean Garrett ft Tyga and Gucci Mane - She Geeked [KingPinVideos]","uid":5748508,"size":84699720,"categoryP":"video","categoryS":"music_videos","magnet":"?xt=urn:btih:e9f06fc734bef87fac6a11120716c72f280cf469&amp;dn=Sean+Garrett+ft+Tyga+and+Gucci+Mane+-+She+Geeked+%5BKingPinVideos%5D&amp;tr=udp%3A%2F%2Ftracker.openbittorrent.com%3A80&amp;tr=udp%3A%2F%2Fopen.demonii.com%3A1337&amp;tr=udp%3A%2F%2Ftracker.coppersurfer.tk%3A6969&amp;tr=udp%3A%2F%2Fexodus.desync.com%3A6969","seeders":0,"leechers":0,"uploader":"KingPinMan","files":4,"time":1281312304,"description":"[img]http://a.imageshack.us/img72/21/seangarrett3.png[/img]\n\n[img]http://a.imageshack.us/img843/6411/seangarrett2.png[/img]\n\n[img]http://a.imageshack.us/img339/3633/seangarrett4.png[/img]\n\n\n[code]General\nComplete name                    : Sean Garrett ft Tyga and Gucci Mane - She Geeked [KingPinVideos].mpg\nFormat                           : MPEG-PS\nFile size                        : 80.8 MiB\nDuration                         : 3mn 57s\nOverall bit rate                 : 2 857 Kbps\nWriting library                  : encoded by TMPGEnc 4.0 XPress Version. 4.7.4.299\n\nVideo\nID                               : 224 (0xE0)\nFormat                           : MPEG Video\nFormat version                   : Version 1\nFormat settings, BVOP            : Yes\nFormat settings, Matrix          : Default\nDuration                         : 3mn 57s\nBit rate mode                    : Constant\nBit rate                         : 2 616 Kbps\nNominal bit rate                 : 2 700 Kbps\nWidth                            : 384 pixels\nHeight                           : 208 pixels\nDisplay aspect ratio             : 16:9\nFrame rate                       : 29.970 fps\nResolution                       : 8 bits\nScan type                        : Progressive\nBits/(Pixel*Frame)               : 1.093\nStream size                      : 73.9 MiB (92%)\nWriting library                  : TMPGEnc XPress 4.7.4.299\n\nAudio\nID                               : 192 (0xC0)\nFormat                           : MPEG Audio\nFormat version                   : Version 1\nFormat profile                   : Layer 2\nDuration                         : 3mn 57s\nBit rate mode                    : Constant\nBit rate                         : 128 Kbps\nChannel(s)                       : 2 channels\nSampling rate                    : 48.0 KHz\nStream size                      : 3.62 MiB (4%)\n[/code]\n","torrent":{"xt":"urn:btih:e9f06fc734bef87fac6a11120716c72f280cf469","amp;dn":"Sean+Garrett+ft+Tyga+and+Gucci+Mane+-+She+Geeked+%5BKingPinVideos%5D","amp;tr":["udp%3A%2F%2Ftracker.openbittorrent.com%3A80","udp%3A%2F%2Fopen.demonii.com%3A1337","udp%3A%2F%2Ftracker.coppersurfer.tk%3A6969","udp%3A%2F%2Fexodus.desync.com%3A6969"],"infoHash":"e9f06fc734bef87fac6a11120716c72f280cf469","infoHashBuffer":{"type":"Buffer","data":[233,240,111,199,52,190,248,127,172,106,17,18,7,22,199,47,40,12,244,105]},"announce":[],"urlList":[]}}